<?xml version="1.0" encoding="utf-8"?>
<!-- Generator: Adobe Illustrator 27.5.0, SVG Export Plug-In . SVG Version: 6.00 Build 0)  -->
<svg version="1.1" id="Layer_1" xmlns="http://www.w3.org/2000/svg" xmlns:xlink="http://www.w3.org/1999/xlink" x="0px" y="0px"
	 viewBox="0 0 4000 9000" style="enable-background:new 0 0 4000 9000;" xml:space="preserve">
<g>
	<g>
		<defs>
			<rect id="SVGID_1_" x="0.085" y="3.322" width="3998.523" height="8996.678"/>
		</defs>
		<clipPath id="SVGID_00000128443717247038259540000014558655136896485286_">
			<use xlink:href="#SVGID_1_"  style="overflow:visible;"/>
		</clipPath>
		
			<linearGradient id="SVGID_00000054267305042324688530000017181326099722754232_" gradientUnits="userSpaceOnUse" x1="1909.8193" y1="7434.2612" x2="2250.5061" y2="-3725.4373">
			<stop  offset="0" style="stop-color:#020C6A"/>
			<stop  offset="1" style="stop-color:#0463EE"/>
		</linearGradient>
		
			<rect x="0.085" y="3.322" style="clip-path:url(#SVGID_00000128443717247038259540000014558655136896485286_);fill:url(#SVGID_00000054267305042324688530000017181326099722754232_);" width="3998.523" height="8996.678"/>
	</g>
	<g>
		<defs>
			<path id="SVGID_00000081626566187902031040000005364846624619685563_" d="M1632.012,7699.684
				c-52.558-38.142-100.922-83.745-147.372-133.414c-112.005-119.766-212.879-263.192-334.568-382.771
				C820.045,6859.186,432.781,6955.016,0.085,6955.016v467.288c737.446-99.132,824.976,496.686,1194.598,748.054
				c380.588,258.824,1056.849-90.417,1307.776,829.643h769.604C3272.063,7690.329,2155.792,8079.828,1632.012,7699.684"/>
		</defs>
		<clipPath id="SVGID_00000145773435204430705550000004765994106452798909_">
			<use xlink:href="#SVGID_00000081626566187902031040000005364846624619685563_"  style="overflow:visible;"/>
		</clipPath>
		
			<linearGradient id="SVGID_00000103231698138106675100000011232199188365957566_" gradientUnits="userSpaceOnUse" x1="1300.0472" y1="8673.2412" x2="1835.5439" y2="7488.1523">
			<stop  offset="0" style="stop-color:#020C6A"/>
			<stop  offset="1" style="stop-color:#0463EE"/>
		</linearGradient>
		
			<rect x="0.085" y="6859.186" style="clip-path:url(#SVGID_00000145773435204430705550000004765994106452798909_);fill:url(#SVGID_00000103231698138106675100000011232199188365957566_);" width="3271.978" height="2140.814"/>
	</g>
	<g>
		<defs>
			<path id="SVGID_00000022542298984751479260000013200095086054362301_" d="M478.225,8566.457
				c-160.303-154.325-121.029-474.632-478.14-459.815V9000h1005.58C893.905,8621.738,629.556,8712.147,478.225,8566.457"/>
		</defs>
		<clipPath id="SVGID_00000137840471398151319120000017184272497792728719_">
			<use xlink:href="#SVGID_00000022542298984751479260000013200095086054362301_"  style="overflow:visible;"/>
		</clipPath>
		
			<linearGradient id="SVGID_00000064342687828546744040000015464199066579948416_" gradientUnits="userSpaceOnUse" x1="44.3145" y1="9040.9688" x2="1015.0507" y2="7992.9736">
			<stop  offset="0" style="stop-color:#0049E6"/>
			<stop  offset="1" style="stop-color:#2DD9FF"/>
		</linearGradient>
		
			<rect x="0.085" y="8091.825" style="clip-path:url(#SVGID_00000137840471398151319120000017184272497792728719_);fill:url(#SVGID_00000064342687828546744040000015464199066579948416_);" width="1005.58" height="908.175"/>
	</g>
	<g>
		<defs>
			<path id="SVGID_00000178172302327450539600000013090899266898486698_" d="M0.085,8106.642
				c357.111-14.817,317.837,305.49,478.14,459.815c151.331,145.69,415.68,55.281,527.441,433.543h785.477
				c-123.32-431.629-515.632-390.795-786.186-524.549c-369.717-182.772-269.31-260.919-503.871-497.956
				c-249.829-252.462-501.001-194.48-501.001-194.48V8106.642z"/>
		</defs>
		<clipPath id="SVGID_00000112600341852077884030000008841353546539625917_">
			<use xlink:href="#SVGID_00000178172302327450539600000013090899266898486698_"  style="overflow:visible;"/>
		</clipPath>
		
			<linearGradient id="SVGID_00000070814243108353037320000014732741688965569449_" gradientUnits="userSpaceOnUse" x1="293.5707" y1="9208.7881" x2="1551.6599" y2="7440.335">
			<stop  offset="0" style="stop-color:#0049E6"/>
			<stop  offset="1" style="stop-color:#2DD9FF"/>
		</linearGradient>
		
			<rect x="0.085" y="7725.033" style="clip-path:url(#SVGID_00000112600341852077884030000008841353546539625917_);fill:url(#SVGID_00000070814243108353037320000014732741688965569449_);" width="1791.057" height="1274.967"/>
	</g>
	<g>
		<defs>
			<path id="SVGID_00000037673043679186478040000007656625482466666932_" d="M501.086,7977.495
				c234.561,237.037,134.154,315.184,503.871,497.956c270.553,133.754,662.865,92.92,786.186,524.549h711.316
				c-250.927-920.06-927.188-570.819-1307.776-829.643C825.061,7918.989,737.531,7323.171,0.085,7422.303v360.712
				C0.085,7783.015,251.257,7725.033,501.086,7977.495"/>
		</defs>
		<clipPath id="SVGID_00000132080466987569518030000002037553692724062089_">
			<use xlink:href="#SVGID_00000037673043679186478040000007656625482466666932_"  style="overflow:visible;"/>
		</clipPath>
		
			<linearGradient id="SVGID_00000054980270775029689650000014108056933984440988_" gradientUnits="userSpaceOnUse" x1="948.3489" y1="8717.9268" x2="1651.3987" y2="7426.7217">
			<stop  offset="0" style="stop-color:#0131B8"/>
			<stop  offset="1" style="stop-color:#0463EE"/>
		</linearGradient>
		
			<rect x="0.085" y="7323.171" style="clip-path:url(#SVGID_00000132080466987569518030000002037553692724062089_);fill:url(#SVGID_00000054980270775029689650000014108056933984440988_);" width="2502.374" height="1676.829"/>
	</g>
	<g>
		<defs>
			<path id="SVGID_00000125575447361089280360000007733319154187054990_" d="M2824.457,8064.443
				c37.817-27.445,72.615-60.253,106.036-95.992c80.586-86.169,153.162-189.36,240.714-275.397
				c237.451-233.339,516.084-164.392,827.402-164.392v336.209c-530.582-71.325-593.561,357.357-859.498,538.213
				c-273.827,186.221-760.385-65.052-940.924,596.915h-553.721C1644.465,8057.708,2447.611,8337.95,2824.457,8064.443"/>
		</defs>
		<clipPath id="SVGID_00000067234437909845706490000011562717943720340354_">
			<use xlink:href="#SVGID_00000125575447361089280360000007733319154187054990_"  style="overflow:visible;"/>
		</clipPath>
		
			<linearGradient id="SVGID_00000075874215519332523150000010972776017895615111_" gradientUnits="userSpaceOnUse" x1="3063.2751" y1="8764.9004" x2="2678.0388" y2="7912.252">
			<stop  offset="0" style="stop-color:#020C6A"/>
			<stop  offset="1" style="stop-color:#0463EE"/>
		</linearGradient>
		
			<rect x="1644.465" y="7459.715" style="clip-path:url(#SVGID_00000067234437909845706490000011562717943720340354_);fill:url(#SVGID_00000075874215519332523150000010972776017895615111_);" width="2354.143" height="1540.285"/>
	</g>
	<g>
		<defs>
			<path id="SVGID_00000067937105345314094770000004481779400303224448_" d="M3654.592,8688.073
				c115.335-111.037,87.081-341.491,344.016-330.832V9000h-723.5C3355.517,8727.844,3545.716,8792.896,3654.592,8688.073"/>
		</defs>
		<clipPath id="SVGID_00000071556294413980332640000013567495346624598679_">
			<use xlink:href="#SVGID_00000067937105345314094770000004481779400303224448_"  style="overflow:visible;"/>
		</clipPath>
		
			<linearGradient id="SVGID_00000096030273823955533660000014983404071677610144_" gradientUnits="userSpaceOnUse" x1="3966.7849" y1="9029.4775" x2="3268.3892" y2="8275.4951">
			<stop  offset="0" style="stop-color:#0049E6"/>
			<stop  offset="1" style="stop-color:#2DD9FF"/>
		</linearGradient>
		
			<rect x="3275.108" y="8346.582" style="clip-path:url(#SVGID_00000071556294413980332640000013567495346624598679_);fill:url(#SVGID_00000096030273823955533660000014983404071677610144_);" width="723.5" height="653.418"/>
	</g>
	<g>
		<defs>
			<path id="SVGID_00000138533030890595280420000005447019859991297421_" d="M3998.608,8357.241
				c-256.935-10.659-228.681,219.795-344.016,330.832c-108.876,104.823-299.075,39.771-379.484,311.927H2709.97
				c88.727-310.548,370.99-281.173,565.646-377.406c266.004-131.503,193.765-187.725,362.529-358.272
				c179.748-181.642,360.463-139.925,360.463-139.925V8357.241z"/>
		</defs>
		<clipPath id="SVGID_00000075852078303104452260000005351522209208830857_">
			<use xlink:href="#SVGID_00000138533030890595280420000005447019859991297421_"  style="overflow:visible;"/>
		</clipPath>
		
			<linearGradient id="SVGID_00000085963052448586899170000012123770758455504281_" gradientUnits="userSpaceOnUse" x1="3787.4634" y1="9150.2158" x2="2882.2942" y2="7877.897">
			<stop  offset="0" style="stop-color:#0049E6"/>
			<stop  offset="1" style="stop-color:#2DD9FF"/>
		</linearGradient>
		
			<rect x="2709.97" y="8082.68" style="clip-path:url(#SVGID_00000075852078303104452260000005351522209208830857_);fill:url(#SVGID_00000085963052448586899170000012123770758455504281_);" width="1288.638" height="917.32"/>
	</g>
	<g>
		<defs>
			<path id="SVGID_00000170993126158883881340000017713709502414166156_" d="M3638.145,8264.321
				c-168.765,170.548-96.525,226.77-362.529,358.272c-194.656,96.233-476.918,66.858-565.646,377.406h-511.784
				c180.538-661.967,667.097-410.694,940.924-596.915c265.938-180.856,328.917-609.538,859.498-538.213v259.524
				C3998.608,8124.396,3817.893,8082.68,3638.145,8264.321"/>
		</defs>
		<clipPath id="SVGID_00000175282207624594140970000006048008622371612555_">
			<use xlink:href="#SVGID_00000170993126158883881340000017713709502414166156_"  style="overflow:visible;"/>
		</clipPath>
		
			<linearGradient id="SVGID_00000058560196568224174050000006007148464124580771_" gradientUnits="userSpaceOnUse" x1="3316.3428" y1="8797.0273" x2="2810.4976" y2="7868.0498">
			<stop  offset="0" style="stop-color:#0131B8"/>
			<stop  offset="1" style="stop-color:#0463EE"/>
		</linearGradient>
		
			<rect x="2198.186" y="7793.547" style="clip-path:url(#SVGID_00000175282207624594140970000006048008622371612555_);fill:url(#SVGID_00000058560196568224174050000006007148464124580771_);" width="1800.422" height="1206.453"/>
	</g>
	<g>
		<defs>
			<path id="SVGID_00000169551198552901282860000006328603670484532367_" d="M1632.012,1303.637
				c-52.558,38.143-100.922,83.746-147.372,133.416c-112.005,119.765-212.879,263.192-334.568,382.77
				C820.045,2144.136,432.781,2048.306,0.085,2048.306v-467.288c737.446,99.132,824.976-496.686,1194.598-748.054
				c380.588-258.824,1056.849,90.417,1307.776-829.643h769.604C3272.063,1312.993,2155.792,923.494,1632.012,1303.637"/>
		</defs>
		<clipPath id="SVGID_00000031176610576373207670000016577210792795571890_">
			<use xlink:href="#SVGID_00000169551198552901282860000006328603670484532367_"  style="overflow:visible;"/>
		</clipPath>
		
			<linearGradient id="SVGID_00000085973564302791554530000008834773812939120536_" gradientUnits="userSpaceOnUse" x1="1300.0472" y1="330.0804" x2="1835.5439" y2="1515.1694">
			<stop  offset="0" style="stop-color:#020C6A"/>
			<stop  offset="1" style="stop-color:#0463EE"/>
		</linearGradient>
		
			<rect x="0.085" y="3.322" style="clip-path:url(#SVGID_00000031176610576373207670000016577210792795571890_);fill:url(#SVGID_00000085973564302791554530000008834773812939120536_);" width="3271.978" height="2140.814"/>
	</g>
	<g>
		<defs>
			<path id="SVGID_00000046322349125845752050000017230068575377589670_" d="M478.225,436.865
				C317.922,591.19,357.196,911.497,0.085,896.68V3.322h1005.58C893.905,381.582,629.556,291.173,478.225,436.865"/>
		</defs>
		<clipPath id="SVGID_00000049196099770352091790000005880104923223649682_">
			<use xlink:href="#SVGID_00000046322349125845752050000017230068575377589670_"  style="overflow:visible;"/>
		</clipPath>
		
			<linearGradient id="SVGID_00000134233864173583448980000002959876083487089551_" gradientUnits="userSpaceOnUse" x1="44.3147" y1="-37.6471" x2="1015.0506" y2="1010.3478">
			<stop  offset="0" style="stop-color:#0049E6"/>
			<stop  offset="1" style="stop-color:#2DD9FF"/>
		</linearGradient>
		
			<rect x="0.085" y="3.322" style="clip-path:url(#SVGID_00000049196099770352091790000005880104923223649682_);fill:url(#SVGID_00000134233864173583448980000002959876083487089551_);" width="1005.58" height="908.175"/>
	</g>
	<g>
		<defs>
			<path id="SVGID_00000153663407166164753640000011561798313749180584_" d="M0.085,896.68
				c357.111,14.817,317.837-305.49,478.14-459.815c151.331-145.692,415.68-55.282,527.441-433.543h785.477
				c-123.32,431.628-515.632,390.795-786.186,524.549C635.24,710.643,735.647,788.79,501.086,1025.827
				c-249.829,252.461-501.001,194.48-501.001,194.48V896.68z"/>
		</defs>
		<clipPath id="SVGID_00000180327668549528514430000017931007224021004703_">
			<use xlink:href="#SVGID_00000153663407166164753640000011561798313749180584_"  style="overflow:visible;"/>
		</clipPath>
		
			<linearGradient id="SVGID_00000110471910283830946090000014018828435322705288_" gradientUnits="userSpaceOnUse" x1="293.5711" y1="-205.4661" x2="1551.6715" y2="1563.0026">
			<stop  offset="0" style="stop-color:#0049E6"/>
			<stop  offset="1" style="stop-color:#2DD9FF"/>
		</linearGradient>
		
			<rect x="0.085" y="3.322" style="clip-path:url(#SVGID_00000180327668549528514430000017931007224021004703_);fill:url(#SVGID_00000110471910283830946090000014018828435322705288_);" width="1791.057" height="1274.965"/>
	</g>
	<g>
		<defs>
			<path id="SVGID_00000093162413848920768590000009473077178757144967_" d="M501.086,1025.827
				C735.647,788.79,635.24,710.643,1004.957,527.871c270.553-133.754,662.865-92.921,786.186-524.549h711.316
				c-250.927,920.059-927.188,570.819-1307.776,829.643C825.061,1084.333,737.531,1680.15,0.085,1581.018v-360.711
				C0.085,1220.307,251.257,1278.287,501.086,1025.827"/>
		</defs>
		<clipPath id="SVGID_00000109723193523911998200000005088991850493544075_">
			<use xlink:href="#SVGID_00000093162413848920768590000009473077178757144967_"  style="overflow:visible;"/>
		</clipPath>
		
			<linearGradient id="SVGID_00000059310897317232445270000002048366273359895965_" gradientUnits="userSpaceOnUse" x1="948.349" y1="285.395" x2="1651.3987" y2="1576.6">
			<stop  offset="0" style="stop-color:#0131B8"/>
			<stop  offset="1" style="stop-color:#0463EE"/>
		</linearGradient>
		
			<rect x="0.085" y="3.322" style="clip-path:url(#SVGID_00000109723193523911998200000005088991850493544075_);fill:url(#SVGID_00000059310897317232445270000002048366273359895965_);" width="2502.374" height="1676.828"/>
	</g>
	<g>
		<defs>
			<path id="SVGID_00000143601669394150161420000004250559536862987158_" d="M2824.457,938.877
				c37.817,27.446,72.615,60.254,106.036,95.993c80.586,86.169,153.162,189.361,240.714,275.398
				c237.451,233.339,516.084,164.391,827.402,164.391V1138.45c-530.582,71.324-593.561-357.357-859.498-538.214
				c-273.827-186.221-760.385,65.053-940.924-596.914h-553.721C1644.465,945.613,2447.611,665.371,2824.457,938.877"/>
		</defs>
		<clipPath id="SVGID_00000057845006096271261370000003845267448222393216_">
			<use xlink:href="#SVGID_00000143601669394150161420000004250559536862987158_"  style="overflow:visible;"/>
		</clipPath>
		
			<linearGradient id="SVGID_00000101808055794557805890000005648700544629411511_" gradientUnits="userSpaceOnUse" x1="3063.2749" y1="238.4198" x2="2678.0405" y2="1091.0677">
			<stop  offset="0" style="stop-color:#020C6A"/>
			<stop  offset="1" style="stop-color:#0463EE"/>
		</linearGradient>
		
			<rect x="1644.465" y="3.322" style="clip-path:url(#SVGID_00000057845006096271261370000003845267448222393216_);fill:url(#SVGID_00000101808055794557805890000005648700544629411511_);" width="2354.143" height="1540.285"/>
	</g>
	<g>
		<defs>
			<path id="SVGID_00000147205877401645576960000011876324350285507219_" d="M3654.592,315.248
				c115.335,111.037,87.081,341.492,344.016,330.832V3.322h-723.5C3355.517,275.478,3545.716,210.425,3654.592,315.248"/>
		</defs>
		<clipPath id="SVGID_00000171712784165552963540000001293003641436565640_">
			<use xlink:href="#SVGID_00000147205877401645576960000011876324350285507219_"  style="overflow:visible;"/>
		</clipPath>
		
			<linearGradient id="SVGID_00000015325884942473764110000009979837922351881885_" gradientUnits="userSpaceOnUse" x1="3966.7849" y1="-26.1553" x2="3268.3892" y2="727.8269">
			<stop  offset="0" style="stop-color:#0049E6"/>
			<stop  offset="1" style="stop-color:#2DD9FF"/>
		</linearGradient>
		
			<rect x="3275.108" y="3.322" style="clip-path:url(#SVGID_00000171712784165552963540000001293003641436565640_);fill:url(#SVGID_00000015325884942473764110000009979837922351881885_);" width="723.5" height="653.418"/>
	</g>
	<g>
		<defs>
			<path id="SVGID_00000128475991963206263130000015714816469169013177_" d="M3998.608,646.08
				c-256.935,10.66-228.681-219.795-344.016-330.832c-108.876-104.823-299.075-39.77-379.484-311.926H2709.97
				c88.727,310.547,370.99,281.173,565.646,377.406c266.004,131.503,193.765,187.724,362.529,358.273
				c179.748,181.64,360.463,139.924,360.463,139.924V646.08z"/>
		</defs>
		<clipPath id="SVGID_00000060008121770553759870000002562615847934097337_">
			<use xlink:href="#SVGID_00000128475991963206263130000015714816469169013177_"  style="overflow:visible;"/>
		</clipPath>
		
			<linearGradient id="SVGID_00000096043730908228370220000009266890523812215941_" gradientUnits="userSpaceOnUse" x1="3787.4631" y1="-146.8937" x2="2882.2861" y2="1125.4357">
			<stop  offset="0" style="stop-color:#0049E6"/>
			<stop  offset="1" style="stop-color:#2DD9FF"/>
		</linearGradient>
		
			<rect x="2709.97" y="3.322" style="clip-path:url(#SVGID_00000060008121770553759870000002562615847934097337_);fill:url(#SVGID_00000096043730908228370220000009266890523812215941_);" width="1288.638" height="917.319"/>
	</g>
	<g>
		<defs>
			<path id="SVGID_00000165233880589529360990000006364424330162032060_" d="M3638.145,739.001
				c-168.765-170.549-96.525-226.77-362.529-358.273c-194.656-96.233-476.918-66.858-565.646-377.406h-511.784
				c180.538,661.967,667.097,410.694,940.924,596.914c265.938,180.857,328.917,609.538,859.498,538.214V878.924
				C3998.608,878.924,3817.893,920.641,3638.145,739.001"/>
		</defs>
		<clipPath id="SVGID_00000005977751563155189180000002692871463622220185_">
			<use xlink:href="#SVGID_00000165233880589529360990000006364424330162032060_"  style="overflow:visible;"/>
		</clipPath>
		
			<linearGradient id="SVGID_00000154405406492561090450000016635228051992050333_" gradientUnits="userSpaceOnUse" x1="3316.3438" y1="206.2928" x2="2810.4985" y2="1135.2699">
			<stop  offset="0" style="stop-color:#0131B8"/>
			<stop  offset="1" style="stop-color:#0463EE"/>
		</linearGradient>
		
			<rect x="2198.186" y="3.322" style="clip-path:url(#SVGID_00000005977751563155189180000002692871463622220185_);fill:url(#SVGID_00000154405406492561090450000016635228051992050333_);" width="1800.422" height="1206.452"/>
	</g>
</g>
</svg>
